<?xml version="1.0" encoding="utf-8"?>
<svg width="800px" height="800px" viewBox="0 0 100 100" fill="none" xmlns="http://www.w3.org/2000/svg">

  <!-- Left curly brace -->
  <path d="M22 5 C14 5 9 11 9 18 L9 37 C9 42 5 46 2 47 C5 48 9 52 9 57 L9 76 C9 83 14 89 22 89" 
        stroke="#4CC45A" stroke-width="11" stroke-linecap="round" stroke-linejoin="round" fill="none"/>

  <!-- Right curly brace -->
  <path d="M78 5 C86 5 91 11 91 18 L91 37 C91 42 95 46 98 47 C95 48 91 52 91 57 L91 76 C91 83 86 89 78 89" 
        stroke="#4CC45A" stroke-width="11" stroke-linecap="round" stroke-linejoin="round" fill="none"/>

  <!-- Left branch node (top) -->
  <circle cx="38" cy="28" r="8" fill="#4CC45A"/>

  <!-- Left branch stem -->
  <line x1="38" y1="36" x2="38" y2="64" stroke="#5BC8F5" stroke-width="6" stroke-linecap="round"/>

  <!-- Right branch stem -->
  <line x1="62" y1="42" x2="62" y2="64" stroke="#5BC8F5" stroke-width="6" stroke-linecap="round"/>

  <!-- Merge arrow horizontal -->
  <line x1="62" y1="34" x2="48" y2="34" stroke="#5BC8F5" stroke-width="6" stroke-linecap="round"/>

  <!-- Merge arrow vertical connector -->
  <line x1="62" y1="34" x2="62" y2="42" stroke="#5BC8F5" stroke-width="6" stroke-linecap="round"/>

  <!-- Arrow head pointing left -->
  <polygon points="46,27 46,41 34,34" fill="#5BC8F5"/>

  <!-- Bottom left node -->
  <circle cx="38" cy="72" r="8" fill="#4CC45A"/>

  <!-- Bottom right node -->
  <circle cx="62" cy="72" r="8" fill="#4CC45A"/>
</svg>
